<?xml version="1.0" encoding="utf-8"?>
<!-- Generator: Adobe Illustrator 27.9.0, SVG Export Plug-In . SVG Version: 6.00 Build 0)  -->
<svg version="1.1" id="Artwork" xmlns="http://www.w3.org/2000/svg" xmlns:xlink="http://www.w3.org/1999/xlink" x="0px" y="0px"
	 viewBox="0 0 810.4 83.5" style="enable-background:new 0 0 810.4 83.5;" xml:space="preserve">
<style type="text/css">
	.st0{fill-rule:evenodd;clip-rule:evenodd;fill:#5F6368;}
	.st1{fill-rule:evenodd;clip-rule:evenodd;fill:#4285F4;}
	.st2{fill-rule:evenodd;clip-rule:evenodd;fill:#34A853;}
	.st3{fill-rule:evenodd;clip-rule:evenodd;fill:#FABB05;}
	.st4{fill-rule:evenodd;clip-rule:evenodd;fill:#E94235;}
	.st5{fill:#FF5A00;}
	.st6{fill:#EB001B;}
	.st7{fill:#F79E1B;}
	.st8{fill:#1434CB;}
</style>
<g>
	<path class="st0" d="M481.5,17.8v19.5h12c2.9,0,5.2-1,7.1-2.9c1.9-1.9,2.9-4.2,2.9-6.8c0-2.6-1-4.9-2.9-6.8c-1.9-2-4.2-3-7.1-3
		L481.5,17.8L481.5,17.8z M481.5,44.1v22.6h-7.2V11h19c4.8,0,8.9,1.6,12.3,4.8c3.4,3.2,5.1,7.1,5.1,11.8c0,4.7-1.7,8.7-5.1,11.8
		c-3.3,3.2-7.4,4.7-12.3,4.7L481.5,44.1C481.5,44.1,481.5,44.1,481.5,44.1z M518,55c0,1.9,0.8,3.4,2.4,4.7c1.6,1.2,3.4,1.9,5.6,1.9
		c3,0,5.7-1.1,8.1-3.3c2.4-2.2,3.5-4.9,3.5-7.9c-2.2-1.8-5.4-2.6-9.3-2.6c-2.9,0-5.3,0.7-7.3,2.1C519,51.2,518,52.9,518,55
		 M527.3,27.3c5.3,0,9.5,1.4,12.5,4.2c3.1,2.8,4.6,6.7,4.6,11.6v23.5h-6.9v-5.3h-0.3c-3,4.4-6.9,6.5-11.8,6.5
		c-4.2,0-7.7-1.2-10.6-3.7c-2.8-2.5-4.2-5.6-4.2-9.3c0-3.9,1.5-7.1,4.5-9.4c3-2.3,7-3.5,12-3.5c4.3,0,7.8,0.8,10.5,2.3v-1.6
		c0-2.5-1-4.6-3-6.3c-1.9-1.7-4.4-2.6-6.9-2.6c-4,0-7.2,1.7-9.5,5.1l-6.3-4C515.3,29.8,520.5,27.3,527.3,27.3 M583.7,28.6
		l-23.9,54.9h-7.4l8.9-19.2l-15.7-35.7h7.8L564.7,56h0.2L576,28.6L583.7,28.6z"/>
	<path class="st1" d="M452.5,39.3c0-2.3-0.2-4.4-0.6-6.5h-30.2v12.3H439c-0.7,4-3,7.5-6.4,9.7v8H443C449,57.2,452.5,49,452.5,39.3"
		/>
	<path class="st2" d="M421.7,70.5c8.7,0,15.9-2.8,21.2-7.7l-10.3-8c-2.9,1.9-6.6,3.1-10.9,3.1c-8.4,0-15.5-5.6-18-13.2h-10.6v8.2
		C398.5,63.7,409.6,70.5,421.7,70.5"/>
	<path class="st3" d="M403.7,44.7c-1.3-4-1.3-8.3,0-12.3v-8.2h-10.6c-2.3,4.5-3.4,9.4-3.4,14.4c0,5.2,1.2,10.1,3.4,14.4L403.7,44.7
		L403.7,44.7z"/>
	<path class="st4" d="M421.7,19.2c4.7,0,9,1.6,12.3,4.8v0l9.1-9.1c-5.5-5.2-12.8-8.3-21.4-8.3c-12.1,0-23.2,6.8-28.6,17.6l10.6,8.2
		C406.3,24.8,413.4,19.2,421.7,19.2"/>
</g>
<g>
	<path d="M667.1,16.5c2.1-2.6,3.5-6.1,3.1-9.7c-3,0.2-6.8,2-8.9,4.6c-1.9,2.2-3.6,5.9-3.2,9.3C661.6,21.1,665,19,667.1,16.5"/>
	<path d="M670.2,21.4c-5-0.3-9.2,2.8-11.6,2.8c-2.4,0-6-2.7-9.9-2.6c-5.1,0.1-9.9,3-12.4,7.6c-5.3,9.2-1.4,22.8,3.8,30.3
		c2.5,3.7,5.6,7.8,9.6,7.6c3.8-0.1,5.3-2.4,9.9-2.4c4.6,0,5.9,2.4,9.9,2.4c4.1-0.1,6.7-3.7,9.3-7.4c2.9-4.2,4.1-8.3,4.1-8.5
		c-0.1-0.1-8-3.1-8.1-12.2c-0.1-7.6,6.2-11.3,6.5-11.5C677.7,22.2,672.1,21.6,670.2,21.4"/>
	<path d="M713.4,11.1c10.8,0,18.3,7.4,18.3,18.3c0,10.9-7.7,18.3-18.6,18.3h-11.9v19h-8.6V11.1L713.4,11.1L713.4,11.1z M701.2,40.5
		h9.9c7.5,0,11.8-4,11.8-11.1c0-7-4.3-11-11.8-11h-9.9V40.5z"/>
	<path d="M734,55.2c0-7.1,5.4-11.4,15.1-12l11.1-0.7v-3.1c0-4.5-3-7.2-8.1-7.2c-4.8,0-7.8,2.3-8.6,5.9h-7.9
		c0.5-7.3,6.7-12.7,16.7-12.7c9.8,0,16.1,5.2,16.1,13.3v27.9h-8V60h-0.2c-2.4,4.5-7.5,7.4-12.8,7.4C739.6,67.4,734,62.5,734,55.2
		L734,55.2z M760.2,51.5v-3.2l-10,0.6c-5,0.3-7.8,2.5-7.8,6c0,3.5,2.9,5.9,7.4,5.9C755.6,60.8,760.2,56.8,760.2,51.5L760.2,51.5z"/>
	<path d="M776,81.6v-6.7c0.6,0.2,2,0.2,2.7,0.2c3.9,0,5.9-1.6,7.2-5.8c0-0.1,0.7-2.5,0.7-2.5L772,26.2h9l10.3,33h0.2l10.3-33h8.8
		l-15.2,42.7c-3.5,9.8-7.5,13-15.9,13C778.7,81.8,776.6,81.7,776,81.6L776,81.6z"/>
</g>
<g>
	<rect id="rect19" x="260.8" y="8.2" class="st5" width="33.6" height="60.4"/>
	<path class="st6" d="M292.2,38.4c0,12.3-5.8,23.1-14.6,30.2c6.5,5.1,14.7,8.2,23.7,8.2c21.2,0,38.4-17.2,38.4-38.4S322.5,0,301.3,0
		c-9,0-17.2,3.1-23.7,8.2C286.4,15.1,292.2,26.1,292.2,38.4z"/>
	<path id="path22" class="st7" d="M215.5,38.4c0-21.2,17.2-38.4,38.4-38.4c9,0,17.2,3.1,23.7,8.2c-9,7-14.6,17.9-14.6,30.2
		s5.8,23.1,14.6,30.2c-6.5,5.1-14.7,8.2-23.7,8.2C232.7,76.8,215.5,59.5,215.5,38.4L215.5,38.4z"/>
</g>
<path class="st8" d="M62.8,12.6L41.2,64.3H27L16.4,23c-0.6-2.5-1.2-3.5-3.2-4.5C10,16.8,4.7,15.1,0,14.1l0.3-1.5h22.8
	c2.9,0,5.5,1.9,6.2,5.3l5.6,29.9l13.9-35.2L62.8,12.6C62.8,12.6,62.8,12.6,62.8,12.6z M118.2,47.4c0.1-13.6-18.9-14.4-18.7-20.5
	c0-1.9,1.8-3.8,5.7-4.3c1.9-0.3,7.2-0.4,13.2,2.3l2.3-11c-3.2-1.2-7.4-2.3-12.5-2.3c-13.2,0-22.5,7-22.6,17.1
	c-0.1,7.4,6.6,11.6,11.7,14.1c5.2,2.5,7,4.2,6.9,6.4c0,3.5-4.2,5-8,5.1c-6.7,0.1-10.6-1.8-13.7-3.3l-2.4,11.3
	c3.1,1.4,8.9,2.7,14.9,2.7C109,65.1,118.2,58.2,118.2,47.4 M153.2,64.3h12.4l-10.8-51.7h-11.4c-2.6,0-4.7,1.5-5.7,3.8l-20.1,47.9h14
	l2.8-7.7h17.2L153.2,64.3L153.2,64.3z M138.2,46l7-19.4l4.1,19.4H138.2L138.2,46z M82,12.6L70.9,64.3H57.5l11.1-51.7L82,12.6
	C82,12.6,82,12.6,82,12.6z"/>
</svg>
