<svg version="1.2" xmlns="http://www.w3.org/2000/svg" viewBox="0 0 303 143" width="303" height="143">
	<title>mt_pelerin_card</title>
	<style>
		.s0 { fill: #5f6368 } 
		.s1 { fill: #4285f4 } 
		.s2 { fill: #34a853 } 
		.s3 { fill: #fabb05 } 
		.s4 { fill: #e94235 } 
		.s5 { fill: #000000 } 
		.s6 { fill: #ff5a00 } 
		.s7 { fill: #eb001b } 
		.s8 { fill: #f79e1b } 
		.s9 { fill: #1434cb } 
	</style>
	<g>
		<path fill-rule="evenodd" class="s0" d="m72.8 130.2h-4.9v-38.6h13.1q5 0 8.5 3.3c2.4 2.3 3.6 5 3.6 8.2 0 3.3-1.2 6-3.6 8.2-2.2 2.2-5.1 3.2-8.5 3.2h-8.2zm0-33.8v13.5h8.4c2 0 3.6-0.7 4.9-2 1.3-1.4 2-2.9 2-4.7 0-1.8-0.7-3.4-2-4.8-1.3-1.3-2.9-2-4.9-2zm31.7 6.5c3.7 0 6.6 1 8.7 3 2.1 1.9 3.1 4.6 3.1 8v16.3h-4.7v-3.7h-0.2c-2.1 3.1-4.8 4.5-8.2 4.5-2.9 0-5.4-0.8-7.4-2.6q-2.9-2.6-2.9-6.4c0-2.7 1.1-4.9 3.1-6.5 2.1-1.6 4.9-2.4 8.4-2.4 2.9 0 5.4 0.5 7.2 1.6v-1.2q0-2.6-2-4.3c-1.4-1.2-3.1-1.8-4.8-1.8-2.8 0-5 1.2-6.6 3.5l-4.4-2.8c2.4-3.4 6-5.2 10.7-5.2zm-6.5 19.2c0 1.4 0.6 2.4 1.7 3.3 1.1 0.8 2.4 1.3 3.9 1.3q3.1 0 5.6-2.3c1.7-1.5 2.4-3.4 2.4-5.4-1.5-1.3-3.7-1.9-6.4-1.9-2 0-3.7 0.5-5.1 1.5q-2.1 1.4-2.1 3.5zm45.6-18.3l-16.6 38.1h-5.1l6.2-13.3-10.9-24.8h5.4l7.8 19h0.1l7.7-19z"/>
		<path fill-rule="evenodd" class="s1" d="m53 111.9c0-1.6-0.2-3-0.5-4.5h-20.9v8.5h12c-0.5 2.8-2.1 5.2-4.4 6.8v5.5h7.2c4.1-3.9 6.6-9.6 6.6-16.3z"/>
		<path fill-rule="evenodd" class="s2" d="m31.6 133.5c6 0 11-1.9 14.7-5.3l-7.1-5.5c-2 1.3-4.6 2.1-7.6 2.1-5.8 0-10.7-3.9-12.5-9.1h-7.3v5.6c3.7 7.5 11.4 12.2 19.8 12.2z"/>
		<path fill-rule="evenodd" class="s3" d="m19.1 115.7c-0.9-2.8-0.9-5.8 0-8.6v-5.7h-7.3c-1.6 3.2-2.4 6.6-2.4 10 0 3.6 0.9 7 2.4 10z"/>
		<path fill-rule="evenodd" class="s4" d="m31.6 98c3.3 0 6.2 1.1 8.5 3.3l6.3-6.3c-3.8-3.6-8.8-5.7-14.8-5.7-8.4 0-16.1 4.7-19.8 12.1l7.3 5.7c1.8-5.2 6.8-9.1 12.5-9.1z"/>
	</g>
	<g>
		<path class="s5" d="m197.1 94c1.6-1.9 2.6-4.4 2.3-7-2.2 0.1-4.9 1.4-6.5 3.3-1.3 1.6-2.6 4.3-2.3 6.8 2.6 0.3 5-1.3 6.5-3.1z"/>
		<path class="s5" d="m199.4 97.6c-3.6-0.2-6.7 2-8.4 2-1.8 0-4.4-2-7.2-1.9-3.7 0.1-7.2 2.2-9 5.5-3.8 6.7-1 16.5 2.8 22 1.8 2.7 4 5.6 6.9 5.5 2.8-0.1 3.9-1.8 7.2-1.8 3.3 0 4.3 1.8 7.2 1.8 2.9-0.1 4.8-2.7 6.7-5.4 2.1-3 3-6 3-6.1-0.1-0.1-5.8-2.3-5.9-8.9-0.1-5.5 4.5-8.2 4.7-8.3-2.6-3.8-6.6-4.3-8-4.4z"/>
		<path class="s5" d="m230.7 90.1c7.8 0 13.2 5.4 13.2 13.3 0 7.9-5.5 13.2-13.4 13.2h-8.7v13.8h-6.2v-40.3zm-8.8 21.3h7.1c5.5 0 8.6-2.9 8.6-8 0-5.1-3.1-8-8.6-8h-7.1z"/>
		<path class="s5" d="m245.6 122.1c0-5.2 3.9-8.3 10.9-8.7l8.1-0.5v-2.3c0-3.2-2.2-5.2-5.9-5.2-3.5 0-5.6 1.7-6.2 4.3h-5.7c0.3-5.3 4.8-9.2 12.1-9.2 7.1 0 11.6 3.7 11.6 9.6v20.2h-5.8v-4.8h-0.1c-1.8 3.3-5.5 5.4-9.3 5.4-5.6 0-9.7-3.6-9.7-8.8zm19-2.7v-2.3l-7.3 0.4c-3.6 0.2-5.6 1.8-5.6 4.3 0 2.6 2.1 4.3 5.3 4.3 4.2 0 7.6-2.9 7.6-6.7z"/>
		<path class="s5" d="m276 141.2v-4.9c0.5 0.2 1.5 0.2 2 0.2 2.8 0 4.2-1.2 5.2-4.2 0-0.1 0.5-1.8 0.5-1.8l-10.6-29.4h6.5l7.5 23.9h0.1l7.5-23.9h6.4l-11 30.9c-2.6 7.1-5.5 9.4-11.5 9.4-0.6-0.1-2.1-0.1-2.6-0.2z"/>
	</g>
	<g>
		<path id="rect19" fill-rule="evenodd" class="s6" d="m221.6 21.8v35.7h-19.9v-35.7z"/>
		<path class="s7" d="m220.3 39.7c0 7.2-3.5 13.6-8.6 17.8 3.8 3 8.6 4.8 13.9 4.8 12.6 0 22.7-10.1 22.7-22.6 0-12.5-10.1-22.7-22.7-22.7-5.3 0-10.1 1.8-13.9 4.8 5.1 4.1 8.6 10.6 8.6 17.9z"/>
		<path id="path22" class="s8" d="m175 39.7c0-12.5 10.2-22.7 22.7-22.7 5.3 0 10.1 1.8 14 4.8-5.4 4.2-8.7 10.6-8.7 17.9 0 7.2 3.5 13.6 8.7 17.8-3.9 3-8.7 4.8-14 4.8-12.5 0-22.7-10.2-22.7-22.6z"/>
	</g>
	<path class="s9" d="m60.8 19.8l-18.2 43.5h-11.9l-8.9-34.7c-0.5-2.1-1-3-2.7-3.8-2.7-1.4-7.2-2.9-11.1-3.7l0.3-1.3h19.1c2.4 0 4.6 1.6 5.2 4.5l4.7 25.1 11.7-29.6h11.8zm46.5 29.3c0.1-11.5-15.9-12.1-15.7-17.2 0-1.6 1.5-3.2 4.8-3.7 1.6-0.2 6-0.3 11.1 2l1.9-9.3c-2.7-1-6.2-1.9-10.5-1.9-11.1 0-18.9 5.9-19 14.4-0.1 6.2 5.5 9.7 9.8 11.8 4.4 2.1 5.9 3.5 5.8 5.4 0 2.9-3.5 4.2-6.7 4.3-5.6 0.1-8.9-1.5-11.5-2.8l-2 9.5c2.6 1.2 7.5 2.3 12.5 2.3 11.8 0 19.5-5.8 19.5-14.8zm29.4 14.2h10.4l-9.1-43.5h-9.5c-2.2 0-4 1.3-4.8 3.2l-16.9 40.3h11.7l2.4-6.5h14.4zm-12.6-15.4l5.9-16.3 3.5 16.3zm-47.2-28l-9.4 43.4h-11.2l9.3-43.4h11.3z"/>
</svg>