<svg xmlns="http://www.w3.org/2000/svg" viewBox="0 0 64 64">
  <circle cx="32" cy="32" r="30" fill="#F7931A"/>
  <path d="M44.656 29.171c.571-3.819-2.334-5.868-6.312-7.24l1.29-5.171-3.147-.784-1.255 5.03c-.829-.206-1.68-.401-2.526-.594l1.264-5.066-3.144-.784-1.29 5.171c-.686-.156-1.36-.31-2.016-.472l.003-.019-4.34-1.084-.838 3.362s2.334.536 2.284.568c1.275.318 1.505 1.161 1.467 1.829l-1.47 5.891c.087.022.2.054.326.104l-.331-.082-2.062 8.264c-.156.387-.552.969-1.444.748.032.046-2.285-.57-2.285-.57l-1.56 3.598 4.094 1.022c.762.19 1.51.39 2.247.578l-1.304 5.235 3.142.784 1.29-5.174c.861.234 1.695.45 2.514.653l-1.285 5.143 3.147.784 1.304-5.23c5.376 1.017 9.422.607 11.12-4.253 1.37-3.91-.068-6.168-2.886-7.634 2.053-.473 3.601-1.821 4.013-4.61zm-7.17 10.058c-.972 3.91-7.548 1.797-9.682 1.267l1.728-6.925c2.134.532 8.978 1.585 7.954 5.658zm.973-10.147c-.886 3.55-6.362 1.748-8.143 1.305l1.567-6.284c1.78.444 7.513 1.273 6.576 4.979z" fill="#FFF"/>
</svg>