<svg width="147" height="24" viewBox="0 0 147 24" fill="none" xmlns="http://www.w3.org/2000/svg">
<path d="M2.1234 0.61972H12.0807C12.8027 0.61972 13.4751 0.985869 13.8658 1.59093L19.1021 9.70133C20.0053 11.1009 20.0053 12.8977 19.1021 14.2973L13.8658 22.4077C13.4751 23.0127 12.8027 23.3789 12.0807 23.3789H2.1234C0.951283 23.3789 0 22.4289 0 21.2583V2.74027C0 1.56973 0.951283 0.61972 2.1234 0.61972Z" fill="#232A3C"/>
<path d="M17.0777 23.3803H24.5308C25.2527 23.3803 25.9252 23.0141 26.3159 22.4091L31.5522 14.2987C32.4553 12.8991 32.4553 11.1023 31.5522 9.70274L26.3159 1.59093C25.9252 0.985869 25.2527 0.61972 24.5308 0.61972H17.0777C16.5171 0.61972 16.1788 1.23892 16.4831 1.70968L21.643 9.70133C22.5461 11.1009 22.5461 12.8977 21.643 14.2973L16.4831 22.2889C16.1788 22.7597 16.5171 23.3789 17.0777 23.3789V23.3803Z" fill="#232A3C"/>
<path d="M38.2378 22.9126V0.61972H47.6226C49.9091 0.61972 51.6863 1.10819 52.9542 2.08513C54.2429 3.06206 54.8873 4.44433 54.8873 6.23191C54.8873 7.60378 54.5339 8.64308 53.8272 9.3498C53.1413 10.0565 52.341 10.5658 51.4264 10.8776V10.9399C52.5905 11.1478 53.5986 11.6986 54.4508 12.5924C55.3238 13.4654 55.7603 14.7334 55.7603 16.3962C55.7603 18.5372 55.0744 20.1585 53.7025 21.2601C52.3306 22.3618 50.4911 22.9126 48.1838 22.9126H38.2378ZM41.6675 9.87984H47.5291C48.9425 9.87984 49.9195 9.60962 50.4599 9.06919C51.0211 8.50797 51.3017 7.7285 51.3017 6.73078C51.3017 5.75384 51.0003 4.98476 50.3975 4.42354C49.8155 3.86232 48.9425 3.58171 47.7785 3.58171H41.6675V9.87984ZM41.6675 19.9506H47.9344C49.0361 19.9506 49.8883 19.7947 50.4911 19.4829C51.1147 19.1504 51.5512 18.7035 51.8006 18.1422C52.05 17.581 52.1747 16.9574 52.1747 16.2715C52.1747 15.1075 51.8318 14.2033 51.1458 13.5589C50.4807 12.9146 49.5661 12.5924 48.4021 12.5924H41.6675V19.9506Z" fill="#232A3C"/>
<path d="M58.2283 0.869152H61.6892V4.17411H58.2283V0.869152ZM58.4466 7.01139H61.5021V22.9126H58.4466V7.01139Z" fill="#232A3C"/>
<path d="M63.6588 7.01139H65.966V1.89805H69.0216V7.01139H72.0771V9.53687H69.0216V18.5164C69.0216 19.3478 69.1567 19.8986 69.4269 20.1689C69.6971 20.4391 70.1544 20.5742 70.7987 20.5742C71.0482 20.5742 71.256 20.5638 71.4223 20.543C71.6094 20.5222 71.838 20.491 72.1083 20.4495V22.9126C71.7133 22.9957 71.3704 23.0477 71.0794 23.0685C70.8091 23.0893 70.4974 23.0997 70.144 23.0997C69.2918 23.0997 68.5435 22.9646 67.8991 22.6944C67.2755 22.4241 66.7975 21.9565 66.4649 21.2913C66.1323 20.6054 65.966 19.6492 65.966 18.4228V9.53687H63.6588V7.01139Z" fill="#232A3C"/>
<path d="M81.2912 13.3095C82.0187 13.4758 82.7358 13.6733 83.4425 13.9019C84.17 14.1306 84.8248 14.4216 85.4068 14.7749C86.0096 15.1283 86.4876 15.596 86.841 16.178C87.1944 16.76 87.371 17.4979 87.371 18.3917C87.371 19.9298 86.7994 21.1458 85.6562 22.0396C84.5338 22.9126 82.9229 23.3491 80.8235 23.3491C79.223 23.3491 77.8823 23.0997 76.8014 22.6008C75.7205 22.0812 74.9099 21.3952 74.3695 20.543C73.829 19.67 73.538 18.6931 73.4964 17.6122H76.5832C76.6663 18.5268 77.0197 19.3062 77.6432 19.9506C78.2668 20.5742 79.3165 20.886 80.7923 20.886C81.6861 20.886 82.372 20.7717 82.8501 20.543C83.349 20.3144 83.6919 20.0234 83.879 19.67C84.0869 19.2959 84.1908 18.9217 84.1908 18.5476C84.1908 17.8824 83.9829 17.3939 83.5672 17.0822C83.1723 16.7496 82.6526 16.5105 82.0083 16.365C81.3639 16.1988 80.6988 16.0429 80.0128 15.8974C79.3269 15.7311 78.6306 15.544 77.9238 15.3361C77.2171 15.1283 76.5728 14.8581 75.9908 14.5255C75.4088 14.1721 74.9411 13.7252 74.5877 13.1848C74.2344 12.6444 74.0577 11.9584 74.0577 11.127C74.0577 9.75513 74.5877 8.65347 75.6478 7.82204C76.7079 6.96981 78.2045 6.5437 80.1376 6.5437C81.5926 6.5437 82.7981 6.78274 83.7543 7.26082C84.7104 7.71811 85.438 8.33129 85.9368 9.10037C86.4357 9.86945 86.7163 10.7113 86.7786 11.6259H83.6919C83.6296 11.2101 83.4841 10.8048 83.2554 10.4099C83.0476 10.0149 82.7046 9.68237 82.2265 9.41216C81.7485 9.14194 81.0625 9.00683 80.1687 9.00683C79.1502 9.00683 78.4019 9.19391 77.9238 9.56805C77.4666 9.92141 77.2379 10.3995 77.2379 11.0023C77.2379 11.5427 77.4146 11.948 77.768 12.2183C78.1421 12.4885 78.6306 12.6963 79.2334 12.8418C79.8569 12.9665 80.5429 13.1224 81.2912 13.3095Z" fill="#232A3C"/>
<path d="M88.3522 7.01139H90.6594V1.89805H93.715V7.01139H96.7705V9.53687H93.715V18.5164C93.715 19.3478 93.8501 19.8986 94.1203 20.1689C94.3905 20.4391 94.8478 20.5742 95.4922 20.5742C95.7416 20.5742 95.9494 20.5638 96.1157 20.543C96.3028 20.5222 96.5315 20.491 96.8017 20.4495V22.9126C96.4067 22.9957 96.0638 23.0477 95.7728 23.0685C95.5026 23.0893 95.1908 23.0997 94.8374 23.0997C93.9852 23.0997 93.2369 22.9646 92.5925 22.6944C91.969 22.4241 91.4909 21.9565 91.1583 21.2913C90.8257 20.6054 90.6594 19.6492 90.6594 18.4228V9.53687H88.3522V7.01139Z" fill="#232A3C"/>
<path d="M103.585 23.3491C102.005 23.3491 100.737 22.9334 99.7807 22.102C98.8453 21.2497 98.3777 20.1481 98.3777 18.797C98.3777 17.6122 98.6583 16.6768 99.2195 15.9909C99.7807 15.305 100.56 14.7749 101.558 14.4008C102.556 14.0058 103.709 13.6837 105.019 13.4342C106.266 13.2056 107.243 12.9562 107.95 12.6859C108.677 12.3949 109.041 11.8649 109.041 11.0958C109.041 10.5138 108.823 10.0149 108.386 9.59923C107.97 9.18351 107.18 8.97565 106.016 8.97565C104.624 8.97565 103.668 9.21469 103.148 9.69277C102.628 10.1501 102.327 10.9087 102.244 11.9688H99.126C99.1883 10.9503 99.4585 10.0357 99.9366 9.22509C100.435 8.39365 101.184 7.73889 102.181 7.26082C103.2 6.76196 104.52 6.51253 106.141 6.51253C107.243 6.51253 108.23 6.68921 109.103 7.04257C109.997 7.37514 110.704 7.94675 111.223 8.7574C111.764 9.54727 112.034 10.6281 112.034 12V19.2959C112.034 19.8779 112.086 20.3144 112.19 20.6054C112.294 20.8964 112.491 21.0419 112.782 21.0419C112.824 21.0419 112.876 21.0419 112.938 21.0419C113.001 21.0419 113.073 21.0315 113.156 21.0107V22.8814C112.637 23.0061 112.117 23.0685 111.598 23.0685C110.849 23.0685 110.267 22.8918 109.851 22.5385C109.436 22.1851 109.186 21.5615 109.103 20.6677H109.041C108.521 21.4992 107.804 22.1539 106.889 22.632C105.975 23.1101 104.873 23.3491 103.585 23.3491ZM104.27 20.886C105.642 20.886 106.775 20.543 107.669 19.8571C108.584 19.1504 109.041 18.1007 109.041 16.708V14.432C108.791 14.6606 108.345 14.8685 107.7 15.0555C107.077 15.2426 106.359 15.4193 105.549 15.5856C104.156 15.8766 103.148 16.2403 102.524 16.6768C101.901 17.1133 101.589 17.7473 101.589 18.5787C101.589 19.327 101.797 19.8986 102.213 20.2936C102.628 20.6885 103.314 20.886 104.27 20.886Z" fill="#232A3C"/>
<path d="M126.515 12.7795C126.473 12.2183 126.328 11.657 126.078 11.0958C125.829 10.5138 125.413 10.0357 124.831 9.66159C124.27 9.26666 123.501 9.06919 122.524 9.06919C121.401 9.06919 120.497 9.3498 119.811 9.91102C119.146 10.4722 118.658 11.2101 118.346 12.1247C118.055 13.0185 117.909 13.9643 117.909 14.962C117.909 15.9597 118.055 16.9055 118.346 17.7993C118.658 18.6931 119.146 19.4206 119.811 19.9818C120.497 20.543 121.401 20.8236 122.524 20.8236C123.501 20.8236 124.27 20.6365 124.831 20.2624C125.413 19.8675 125.829 19.379 126.078 18.797C126.328 18.215 126.473 17.6226 126.515 17.0198H129.695C129.633 18.2254 129.29 19.3166 128.666 20.2936C128.042 21.2497 127.201 22.0084 126.14 22.5696C125.101 23.1101 123.906 23.3803 122.555 23.3803C120.975 23.3803 119.593 23.0269 118.408 22.3202C117.244 21.6135 116.34 20.6262 115.696 19.3582C115.051 18.0903 114.729 16.6249 114.729 14.962C114.729 13.2991 115.051 11.8337 115.696 10.5658C116.34 9.29784 117.244 8.31051 118.408 7.60378C119.593 6.89706 120.965 6.5437 122.524 6.5437C123.896 6.5437 125.091 6.81392 126.109 7.35435C127.149 7.89479 127.97 8.63269 128.572 9.56805C129.196 10.5034 129.57 11.5739 129.695 12.7795H126.515Z" fill="#232A3C"/>
<path d="M132.131 22.9126V0.61972H135.187V13.746L142.139 7.01139H145.631L139.52 12.8418L146.286 22.9126H142.701L137.494 14.7749L135.187 16.9886V22.9126H132.131Z" fill="#232A3C"/>
</svg>
