<!DOCTYPE svg PUBLIC "-//W3C//DTD SVG 1.1//EN" "http://www.w3.org/Graphics/SVG/1.1/DTD/svg11.dtd">
<!-- Uploaded to: SVG Repo, www.svgrepo.com, Transformed by: SVG Repo Mixer Tools -->
<svg fill="#FFB636" version="1.1" id="Capa_1" xmlns="http://www.w3.org/2000/svg" xmlns:xlink="http://www.w3.org/1999/xlink" width="800px" height="800px" viewBox="0 0 352.621 352.62" xml:space="preserve">
<g id="SVGRepo_bgCarrier" stroke-width="0"/>
<g id="SVGRepo_tracerCarrier" stroke-linecap="round" stroke-linejoin="round"/>
<g id="SVGRepo_iconCarrier"> <g> <g> <g> <path d="M207.319,9.992C201.134,3.867,189.298,0,176.31,0c-13.042,0-24.872,3.861-31.033,9.998 c6.776-1.447,16.921-2.951,29.84-2.951C185.57,7.053,196.396,8.035,207.319,9.992z"/> </g> <g> <rect x="164.412" y="211.753" width="23.794" height="52.908"/> </g> <g> <path d="M161.847,206.223c-25.781-10.761-44.069-50.329-44.069-96.785c0-44.363,17.249-83.403,41.61-95.671 c-13.964,1.483-22.112,4.411-22.202,4.447l-0.709,0.264l-0.24-0.627C86.5,30.234,53.122,64.054,53.122,102.151 c0,36.993,32.18,70.571,80.065,83.553l2.042,0.553v19.966H161.847z"/> </g> <g> <path d="M215.071,17.522c-7.83-1.763-15.654-3.029-23.286-3.769c24.391,12.229,41.661,51.296,41.661,95.684 c0,46.462-18.303,86.024-44.081,96.785h28.036v-19.966l2.042-0.553c47.882-12.982,80.056-46.566,80.056-83.553 C299.493,63.654,265.572,29.637,215.071,17.522z"/> </g> <g> <polygon points="168.93,270.192 155.858,352.62 195.261,352.62 179.649,270.192 "/> </g> <g> <path d="M225.279,108.81c0-48.017-21.701-85.628-49.416-85.628c-27.703,0-49.401,37.617-49.401,85.628s21.698,85.62,49.401,85.62 C203.578,194.43,225.279,156.827,225.279,108.81z"/> </g> </g> </g> </g>
</svg>